<?xml version="1.0" standalone="no"?>
<!DOCTYPE svg PUBLIC "-//W3C//DTD SVG 20010904//EN"
 "http://www.w3.org/TR/2001/REC-SVG-20010904/DTD/svg10.dtd">
<svg version="1.0" xmlns="http://www.w3.org/2000/svg"
 width="570.000000pt" height="570.000000pt" viewBox="0 0 570.000000 570.000000"
 preserveAspectRatio="xMidYMid meet">

<g transform="translate(0.000000,570.000000) scale(0.100000,-0.100000)"
fill="#000000" stroke="none">
<path d="M1493 3982 c-157 -4 -143 53 -143 -582 0 -518 0 -528 21 -554 l20
-26 1453 0 1453 0 22 24 23 24 -1 533 0 533 -26 25 -25 26 -1348 0 c-741 0
-1393 -1 -1449 -3z m703 -269 c67 -36 94 -75 94 -137 0 -41 -6 -62 -25 -91
-15 -20 -25 -38 -23 -39 98 -57 143 -167 104 -259 -17 -42 -93 -109 -143 -127
-49 -17 -473 -27 -473 -11 0 6 9 25 20 43 19 31 20 51 20 293 0 241 -2 264
-20 300 -11 22 -20 43 -20 48 0 5 96 7 213 5 196 -3 215 -5 253 -25z m575 17
c46 -13 96 -47 123 -83 48 -65 11 -198 -69 -247 l-35 -22 22 -36 c30 -50 155
-217 175 -233 26 -22 90 -17 115 9 22 22 23 29 26 259 2 186 0 238 -10 244
-17 11 -109 3 -142 -12 -42 -19 -52 -1 -32 59 10 28 23 55 30 61 9 8 107 10
311 9 l298 -3 22 -65 c28 -82 134 -343 143 -352 4 -4 21 23 37 60 15 37 43 99
60 137 57 126 61 140 42 169 -34 51 -26 56 78 56 76 0 97 -3 101 -15 4 -8 -41
-120 -99 -248 -58 -127 -126 -280 -152 -339 -26 -59 -53 -109 -60 -112 -20 -7
-103 52 -121 87 -17 32 -116 272 -166 402 -17 44 -35 85 -40 91 -9 13 -84 24
-105 16 -10 -3 -13 -62 -13 -248 0 -233 7 -294 32 -294 4 0 8 -9 8 -20 0 -19
-7 -20 -202 -20 -236 0 -302 9 -366 48 -43 26 -53 40 -122 175 -41 81 -78 147
-81 147 -3 0 -4 -66 -2 -147 4 -128 7 -152 25 -177 17 -23 18 -30 7 -37 -20
-12 -246 -11 -254 1 -3 6 3 22 14 36 20 26 21 39 21 303 0 256 -2 278 -19 305
-11 17 -18 33 -15 38 7 12 372 10 415 -2z" fill="#ff0000"/>
<path d="M1962 3627 c-8 -10 -12 -38 -10 -78 3 -60 4 -63 33 -71 17 -4 46 -3
68 3 75 20 98 73 54 125 -19 22 -34 28 -78 32 -41 3 -58 0 -67 -11z" fill="#ff0000"/>
<path d="M1973 3370 c-22 -9 -23 -15 -23 -109 0 -55 4 -102 9 -106 6 -3 40 -6
78 -7 102 -2 164 38 166 106 1 46 -20 84 -57 103 -36 19 -142 27 -173 13z" fill="#ff0000"/>
<path d="M2577 3623 c-8 -8 -9 -155 -2 -175 5 -11 19 -13 64 -7 94 11 110 26
113 104 2 57 -35 85 -111 85 -32 0 -61 -3 -64 -7z" fill="#ff0000"/>
<path d="M1610 2333 c-29 -5 -70 -40 -70 -60 0 -7 9 -13 21 -13 12 0 23 -8 26
-20 8 -30 23 -25 81 26 42 37 50 49 41 60 -11 14 -48 16 -99 7z"/>
<path d="M4175 2331 c-3 -6 -8 -54 -12 -108 -5 -85 -9 -101 -30 -120 -27 -26
-28 -36 -8 -93 l15 -43 -45 -84 c-42 -77 -48 -103 -26 -103 5 0 27 25 50 55
23 30 45 55 50 55 5 0 11 -21 15 -47 8 -60 38 -110 74 -124 60 -24 291 19 293
54 0 7 0 44 -1 82 -5 173 -33 222 -45 78 -10 -121 -14 -129 -76 -147 -114 -34
-162 -12 -178 80 -5 27 -12 57 -16 67 -5 13 -2 17 13 17 23 0 68 61 82 111 13
45 13 134 -1 183 -11 39 -57 96 -78 96 -18 0 -12 -29 12 -61 19 -26 22 -43 22
-117 -1 -90 -19 -146 -51 -159 -26 -10 -26 3 -4 66 18 47 20 64 11 75 -6 7
-14 43 -16 78 -6 92 -29 142 -50 109z"/>
<path d="M2711 2312 c-5 -10 -15 -58 -22 -106 -7 -48 -19 -94 -26 -102 -8 -8
-32 -14 -54 -14 -28 0 -39 -4 -39 -15 0 -21 36 -55 58 -55 24 0 42 -19 42 -46
0 -31 -73 -94 -109 -94 -34 0 -54 -20 -49 -52 3 -20 10 -24 60 -28 43 -4 64
-11 85 -31 72 -67 103 -60 82 20 l-13 50 54 58 c29 32 57 62 61 67 4 5 16 6
26 2 15 -6 12 -13 -25 -46 -34 -32 -42 -46 -42 -75 0 -40 36 -85 68 -85 10 0
27 -9 37 -20 23 -26 61 -25 103 0 35 22 52 54 72 137 14 62 4 88 -40 98 -16 4
-30 10 -30 15 0 8 40 26 83 36 30 7 33 14 15 32 -16 16 -51 15 -116 -2 -29 -7
-55 -9 -58 -5 -3 5 15 21 40 37 34 20 44 32 40 45 -4 11 1 24 13 32 17 13 17
15 -9 41 l-26 27 -18 -22 c-10 -11 -22 -21 -26 -21 -15 0 -8 27 12 45 14 13
20 29 18 49 -5 48 -36 45 -99 -9 -63 -54 -71 -82 -21 -77 32 3 41 -9 24 -35
-7 -12 -54 -33 -73 -33 -13 0 -39 68 -39 105 0 73 -36 120 -59 77z m120 -244
c-13 -10 -28 -15 -34 -11 -6 4 -1 13 12 25 13 10 28 15 34 11 6 -4 1 -13 -12
-25z m-17 -68 c4 -5 -11 -22 -35 -40 -49 -35 -61 -26 -33 26 18 33 41 38 68
14z m201 -111 c11 -33 -4 -87 -27 -103 -44 -31 -52 13 -11 57 l28 28 -24 18
c-13 10 -21 23 -17 30 10 16 43 -3 51 -30z m-110 -89 c0 -22 -29 -18 -33 3 -3
14 1 18 15 15 10 -2 18 -10 18 -18z"/>
<path d="M4762 2203 c-139 -134 -148 -151 -114 -194 l19 -22 114 36 c113 37
159 45 159 29 0 -5 -45 -28 -100 -52 -76 -32 -100 -47 -100 -61 0 -23 22 -24
80 -4 71 25 86 -4 18 -35 -56 -26 -88 -26 -95 0 -5 21 -36 35 -53 25 -6 -3 -2
-20 10 -43 11 -20 20 -41 20 -47 0 -5 9 -21 19 -34 l18 -24 86 21 c48 12 95
22 106 22 34 0 71 18 65 33 -2 7 -18 21 -34 31 -17 9 -30 21 -30 26 0 6 18 22
40 36 47 32 50 48 11 72 -39 24 -37 37 7 37 36 0 37 1 40 40 4 44 -14 109 -34
126 -10 8 -26 -1 -67 -40 -49 -46 -84 -67 -144 -85 -46 -15 -24 32 57 117 44
47 80 89 80 95 0 9 -22 22 -39 22 -4 0 -67 -57 -139 -127z"/>
<path d="M2247 2313 c-17 -16 -6 -68 19 -94 l27 -28 -29 -26 c-24 -21 -36 -24
-66 -20 l-38 5 0 -97 c0 -92 -2 -102 -33 -158 -24 -43 -44 -65 -70 -78 -20
-10 -37 -24 -37 -31 0 -25 32 -56 57 -56 54 0 144 135 173 258 15 63 40 83
169 133 46 18 86 40 89 47 3 9 -11 31 -37 55 -35 32 -48 38 -70 34 -21 -5 -41
3 -79 29 -52 35 -64 39 -75 27z"/>
<path d="M3906 2304 c-23 -23 -19 -61 9 -89 19 -20 34 -25 74 -25 70 0 74 16
15 68 -67 60 -79 65 -98 46z"/>
<path d="M983 2299 c-9 -9 -7 -21 8 -50 21 -42 24 -106 9 -179 -6 -25 -17 -80
-24 -122 -8 -43 -20 -86 -25 -97 -14 -25 -14 -58 -1 -66 10 -6 43 12 168 93
69 45 69 80 0 97 -32 8 -41 27 -28 59 11 29 27 36 62 24 34 -12 66 4 74 39 10
38 -7 58 -52 61 -44 3 -64 23 -64 62 0 27 -27 58 -67 79 -28 14 -46 14 -60 0z"/>
<path d="M1694 2231 c-170 -71 -231 -108 -378 -233 -6 -5 -6 -12 2 -20 9 -9
31 0 94 39 126 77 254 138 361 173 93 30 102 37 97 70 -2 14 -18 30 -30 29 -3
0 -68 -26 -146 -58z"/>
<path d="M3422 2248 c-7 -7 -12 -18 -12 -25 0 -8 -21 -23 -46 -33 -58 -25 -58
-53 1 -60 54 -7 56 -29 6 -83 -48 -52 -50 -63 -15 -71 29 -8 30 -39 1 -44 -26
-5 -47 16 -73 75 -13 28 -28 54 -33 58 -24 14 -28 -8 -11 -57 10 -29 25 -75
32 -101 7 -27 17 -52 23 -57 6 -5 29 -4 52 3 39 10 44 9 66 -15 39 -42 120
-47 190 -12 55 29 24 100 -39 88 -46 -8 -54 14 -20 59 52 68 69 142 45 204
-13 35 -25 43 -71 43 -20 0 -40 4 -43 10 -12 20 -42 29 -53 18z m102 -114 c8
-20 -10 -54 -29 -54 -21 0 -26 15 -15 44 11 29 35 34 44 10z"/>
<path d="M702 2238 c-15 -15 -16 -45 -1 -53 21 -14 69 -89 69 -109 0 -13 -21
-42 -50 -71 -27 -27 -50 -57 -50 -66 0 -9 14 -33 30 -54 36 -46 44 -73 37
-123 -9 -52 3 -66 46 -58 83 16 141 130 142 281 0 86 -1 90 -22 93 -17 3 -25
14 -34 45 -15 59 -33 84 -79 107 -45 23 -71 25 -88 8z"/>
<path d="M3950 2108 c-40 -29 -108 -70 -149 -93 -43 -22 -76 -47 -76 -55 0
-20 39 -24 92 -10 24 7 46 10 50 7 3 -4 -6 -33 -21 -66 -39 -87 -34 -105 28
-103 17 0 39 -6 48 -15 16 -14 20 -14 43 1 41 27 52 56 64 161 6 62 18 115 31
139 17 35 18 43 6 60 -7 12 -20 22 -27 24 -8 1 -48 -21 -89 -50z"/>
<path d="M1690 2125 c-63 -32 -221 -146 -234 -168 -9 -15 -5 -24 26 -53 21
-18 42 -34 47 -34 5 0 23 12 40 26 22 19 32 22 35 12 2 -7 12 -43 21 -80 9
-38 22 -68 27 -68 5 0 23 10 40 21 28 20 29 25 23 66 -5 35 -2 51 14 79 14 23
19 44 15 60 -5 18 0 32 14 47 38 42 44 64 26 92 -20 31 -36 31 -94 0z m-30
-84 c0 -16 -80 -81 -100 -81 -36 0 -23 24 35 63 40 27 65 34 65 18z"/>
<path d="M1767 1892 c-10 -10 -17 -22 -17 -25 0 -18 95 -127 111 -127 18 0 69
53 69 72 0 5 -21 29 -47 53 -53 48 -89 57 -116 27z"/>
<path d="M1459 1809 c-9 -5 -5 -19 14 -51 37 -63 50 -72 71 -49 13 14 15 26 8
57 -7 35 -12 39 -44 45 -21 3 -43 2 -49 -2z"/>
</g>
</svg>
