<?xml version="1.0" standalone="no"?>
<!DOCTYPE svg PUBLIC "-//W3C//DTD SVG 20010904//EN"
 "http://www.w3.org/TR/2001/REC-SVG-20010904/DTD/svg10.dtd">
<svg version="1.0" xmlns="http://www.w3.org/2000/svg"
 width="570.000000pt" height="570.000000pt" viewBox="0 0 570.000000 570.000000"
 preserveAspectRatio="xMidYMid meet">

<g transform="translate(0.000000,570.000000) scale(0.100000,-0.100000)"
fill="#000000" stroke="none">
<path d="M1327 4310 l-329 -5 -24 -28 -24 -28 0 -649 0 -650 29 -32 29 -33
1725 -1 c949 -1 1751 1 1783 5 52 5 61 10 82 41 l23 34 -3 644 -3 644 -33 29
c-32 29 -33 29 -160 29 -1648 4 -2835 4 -3095 0z m562 -300 c80 -13 128 -38
174 -89 59 -66 62 -144 6 -221 -17 -23 -27 -45 -22 -49 4 -4 25 -19 45 -34 21
-15 50 -49 65 -75 23 -39 27 -58 27 -117 0 -83 -14 -114 -77 -172 -90 -83
-139 -93 -443 -94 -130 0 -241 4 -246 9 -6 6 1 25 17 48 l26 38 -3 337 -3 337
-24 33 c-23 31 -23 33 -6 46 23 16 366 18 464 3z m840 -21 c89 -39 142 -112
141 -194 -1 -72 -53 -162 -112 -195 -21 -12 -38 -27 -38 -34 0 -16 98 -159
172 -253 80 -100 151 -119 209 -57 l24 26 0 291 0 292 -66 3 c-40 2 -83 -3
-110 -12 -57 -20 -65 -11 -50 58 23 103 -5 96 401 101 396 4 392 5 405 -62 4
-20 39 -116 80 -213 40 -96 78 -192 84 -212 7 -21 16 -38 20 -38 7 0 132 277
170 378 16 41 15 44 -7 83 -17 28 -21 44 -14 51 13 13 233 11 245 -1 4 -4 -24
-80 -64 -167 -39 -87 -124 -278 -189 -424 -128 -290 -129 -291 -193 -251 -81
50 -116 119 -288 564 -56 147 -58 149 -132 145 l-62 -3 0 -312 c0 -309 0 -312
23 -335 12 -14 22 -32 22 -42 0 -16 -19 -17 -302 -14 l-303 3 -59 30 c-32 16
-72 46 -90 66 -17 20 -65 107 -106 193 -41 85 -78 156 -82 156 -5 0 -8 -78 -8
-174 0 -169 1 -174 26 -211 42 -62 35 -65 -141 -65 -171 0 -176 2 -134 59 20
27 21 40 21 363 1 331 1 336 -21 374 -38 64 -28 67 248 59 205 -5 241 -8 280
-26z" fill="#ff0000"/>
<path d="M1703 3882 c-18 -12 -21 -171 -3 -182 40 -26 170 2 190 41 31 56 -6
130 -71 143 -42 8 -101 7 -116 -2z" fill="#ff0000"/>
<path d="M1712 3560 c-22 -9 -23 -12 -20 -137 l3 -128 89 -3 c126 -4 190 29
209 109 17 67 -36 141 -113 158 -55 13 -137 13 -168 1z" fill="#ff0000"/>
<path d="M2457 3873 c-10 -9 -9 -221 1 -226 4 -2 40 -1 81 4 89 10 119 33 128
97 8 57 -12 101 -53 118 -34 14 -145 19 -157 7z" fill="#ff0000"/>
<path d="M1270 2289 c-29 -5 -53 -18 -68 -35 -27 -31 -24 -48 7 -52 12 -2 26
-14 31 -28 5 -13 14 -24 19 -24 13 0 111 80 124 101 6 9 7 24 4 33 -7 18 -43
19 -117 5z"/>
<path d="M4415 2287 c-8 -22 -25 -168 -25 -210 0 -35 -6 -47 -30 -69 -34 -29
-37 -52 -15 -105 25 -59 23 -66 -63 -223 -24 -42 -23 -70 0 -70 7 1 33 30 58
65 51 72 80 84 80 34 0 -49 20 -105 50 -141 l28 -33 113 0 c96 0 125 4 182 25
38 13 72 31 76 40 8 14 -4 261 -14 288 -10 26 -35 12 -36 -20 -2 -97 -17 -200
-33 -217 -20 -22 -117 -51 -172 -51 -69 0 -100 36 -109 128 -2 25 -9 50 -15
56 -16 16 -12 26 14 36 30 11 74 68 92 117 16 46 18 193 3 246 -12 46 -64 107
-90 107 -26 0 -24 -13 9 -68 25 -43 27 -56 27 -147 0 -88 -3 -105 -25 -145
-26 -46 -60 -66 -60 -34 0 9 10 44 22 77 21 57 21 61 5 89 -11 19 -17 52 -17
91 0 34 -5 78 -10 99 -11 36 -37 58 -45 35z"/>
<path d="M2616 2263 c-7 -16 -20 -75 -27 -132 -16 -122 -29 -141 -95 -141 -24
0 -46 -5 -49 -10 -12 -20 24 -59 66 -71 50 -15 65 -40 49 -79 -17 -40 -82 -90
-119 -90 -40 0 -73 -33 -69 -68 3 -26 6 -27 68 -32 60 -5 70 -9 124 -52 62
-51 77 -56 96 -33 10 12 9 23 -4 55 -25 63 -21 78 39 137 30 30 55 58 55 63 0
5 11 17 26 26 19 13 28 14 37 5 9 -9 1 -22 -36 -56 -41 -39 -47 -50 -47 -84 0
-67 34 -111 84 -111 7 0 23 -12 37 -26 21 -22 30 -25 68 -21 80 9 116 53 147
180 21 82 11 112 -37 125 -18 4 -34 13 -37 20 -4 13 55 42 86 42 11 0 25 6 31
14 10 12 7 18 -14 32 -27 18 -32 17 -185 -18 -32 -7 -13 27 30 52 34 20 45 32
45 51 0 14 8 33 17 42 21 21 15 40 -19 62 -24 16 -26 16 -52 -9 -25 -24 -41
-26 -41 -5 0 5 14 22 30 39 36 36 39 73 8 94 -26 18 -38 12 -125 -62 -66 -55
-71 -85 -15 -80 34 3 37 1 37 -22 0 -19 -9 -29 -38 -43 -21 -11 -44 -16 -52
-13 -21 8 -41 63 -48 135 -7 62 -27 111 -47 111 -5 0 -16 -12 -24 -27z m164
-278 c0 -14 -29 -35 -49 -35 -20 0 -11 27 12 38 30 15 37 14 37 -3z m-37 -105
c8 -7 -77 -80 -94 -80 -16 0 -10 32 12 67 18 29 26 34 48 28 14 -4 30 -10 34
-15z m229 -107 c42 -38 9 -163 -43 -163 -31 0 -23 40 17 81 l36 36 -31 23
c-17 12 -29 26 -26 31 9 14 26 11 47 -8z m-114 -136 c4 -22 -27 -35 -39 -16
-5 8 -9 20 -9 27 0 20 44 10 48 -11z"/>
<path d="M5137 2137 c-133 -128 -159 -158 -164 -187 -3 -26 0 -42 15 -60 l19
-24 84 23 c46 12 104 31 128 42 56 24 116 34 125 21 8 -14 0 -19 -117 -69
-111 -47 -127 -58 -127 -84 0 -24 22 -24 95 1 31 11 61 17 66 14 23 -14 4 -36
-48 -60 -55 -24 -103 -26 -103 -4 0 15 -38 50 -55 50 -23 0 -19 -20 21 -109
24 -53 42 -81 53 -81 9 0 57 11 106 25 50 14 99 25 110 25 40 0 95 21 95 36 0
8 -15 24 -34 35 -53 31 -52 45 4 85 28 20 50 42 50 50 0 7 -18 25 -40 39 -22
14 -40 29 -40 35 0 5 21 10 48 12 l47 3 3 50 c4 58 -13 117 -40 142 -18 16
-21 14 -76 -39 -62 -61 -120 -96 -176 -105 -67 -11 -47 26 93 170 l76 78 -24
20 c-13 10 -26 19 -30 19 -3 0 -77 -69 -164 -153z"/>
<path d="M2047 2263 c-4 -3 -7 -24 -7 -46 0 -30 7 -45 30 -67 17 -15 30 -31
30 -34 0 -3 -19 -19 -41 -36 -35 -25 -48 -29 -80 -24 l-37 6 -4 -128 -3 -129
-40 -65 c-26 -41 -51 -70 -70 -78 -72 -32 -75 -38 -40 -81 33 -39 72 -41 113
-6 45 38 109 153 143 260 37 116 54 131 213 195 58 23 107 48 110 56 15 39
-83 120 -132 110 -23 -6 -40 1 -89 34 -59 39 -83 47 -96 33z"/>
<path d="M4075 2250 c-23 -25 -14 -79 20 -110 33 -31 133 -41 154 -16 11 13
11 19 0 33 -17 20 -139 113 -149 113 -4 0 -15 -9 -25 -20z"/>
<path d="M503 2253 c-18 -7 -16 -28 7 -73 13 -26 20 -59 20 -97 0 -66 -51
-329 -75 -386 -18 -44 -12 -77 15 -77 19 0 199 108 238 143 12 11 22 26 22 32
0 18 -42 52 -72 59 -33 8 -43 37 -26 73 13 26 17 28 70 25 47 -3 60 0 77 17
48 48 14 111 -60 111 -43 0 -58 15 -66 67 -8 56 -18 69 -66 92 -43 21 -61 24
-84 14z"/>
<path d="M1375 2166 c-82 -34 -173 -74 -201 -89 -61 -31 -268 -193 -272 -213
-7 -28 36 -13 144 51 159 95 275 151 415 198 107 36 124 45 127 65 4 29 -14
52 -42 51 -11 0 -88 -29 -171 -63z"/>
<path d="M162 2174 c-30 -21 -28 -40 12 -88 18 -23 41 -56 50 -75 23 -44 10
-75 -60 -139 -30 -27 -54 -54 -54 -59 0 -6 11 -25 25 -44 58 -81 67 -108 60
-175 -6 -57 -5 -64 15 -74 31 -17 85 4 131 52 47 48 83 153 93 269 8 89 -2
122 -40 141 -22 10 -30 24 -39 66 -15 64 -35 88 -100 118 -59 28 -64 29 -93 8z"/>
<path d="M3474 2163 c-6 -17 -26 -36 -59 -52 -35 -18 -50 -32 -50 -46 0 -17 7
-20 41 -21 79 -2 85 -32 19 -103 -25 -26 -45 -55 -45 -64 0 -8 14 -20 30 -26
36 -12 39 -37 5 -53 -34 -15 -59 8 -96 90 -26 58 -51 83 -66 68 -4 -3 3 -34
14 -69 12 -34 29 -90 39 -125 19 -67 42 -85 82 -63 32 17 57 13 82 -14 71 -76
270 -50 270 36 0 41 -24 59 -81 59 -41 0 -49 3 -49 19 0 10 7 24 16 32 9 7 30
40 47 73 26 51 31 71 30 125 -2 88 -22 114 -91 121 -28 3 -59 13 -69 23 -29
26 -58 22 -69 -10z m140 -119 c10 -25 -15 -65 -38 -62 -17 2 -21 10 -19 37 2
48 42 65 57 25z"/>
<path d="M4122 2006 c-60 -42 -143 -92 -183 -113 -79 -41 -96 -66 -57 -83 18
-8 37 -6 83 9 36 12 64 16 69 11 6 -6 -3 -36 -22 -78 -48 -104 -41 -132 34
-132 25 0 47 -6 54 -15 20 -24 39 -18 80 23 36 37 37 38 49 157 9 91 18 134
38 178 l27 57 -20 27 c-11 15 -25 28 -31 30 -6 2 -60 -30 -121 -71z"/>
<path d="M1364 2035 c-112 -58 -294 -194 -294 -219 0 -6 16 -28 35 -48 41 -45
72 -49 111 -13 32 30 48 28 52 -6 6 -54 36 -151 48 -156 7 -3 30 5 50 18 l36
22 -6 57 c-6 48 -3 63 18 103 20 37 23 52 16 72 -8 21 -5 30 19 57 48 55 55
76 37 103 -31 47 -48 48 -122 10z m-38 -97 c10 -15 -91 -108 -117 -108 -38 0
-18 42 40 82 59 41 66 44 77 26z"/>
<path d="M1463 1751 c-13 -11 -23 -25 -23 -31 0 -23 105 -151 128 -157 27 -6
51 13 78 62 l18 34 -59 55 c-66 61 -102 70 -142 37z"/>
<path d="M1076 1642 c-11 -18 65 -132 88 -132 28 0 38 27 29 82 l-8 53 -52 2
c-29 2 -54 -1 -57 -5z"/>
</g>
</svg>
