<?xml version="1.0" standalone="no"?>
<!DOCTYPE svg PUBLIC "-//W3C//DTD SVG 1.1//EN" 
"http://www.w3.org/Graphics/SVG/1.1/DTD/svg11.dtd">

<svg width="100" height="120" version="1.1"
xmlns="http://www.w3.org/2000/svg">

<path d="M30 20
C22 8 40 8 30 20

Q29 22 25 25

Q5 40 30 55
Q50 65 60 72
C80 95 40 95 60 72

Q65 67 80 57
C88 52 88 62 80 57

Q75 55 68 45
C60 30 80 30 68 45
Q62 50 50 55
C-50 115 150 115 50 55
Q38 50 32 45
C20 30 40 30 32 45

Q25 55 20 57
C12 52 12 62 20 57

Q35 65 40 72
C20 95 60 95 40 72

Q50 65 70 55
Q95 40 75 25
Q71 22 70 20

C60 8 78 8 70 20

Q65 32 50 45
C-80 130 180 130 50 45
Q35 32 30 20

"
style="fill:#00000000;stroke:#000000;stroke-width:2"/>


</svg>