<?xml version="1.0" encoding="iso-8859-1"?>
<!-- Generator: Adobe Illustrator 16.0.0, SVG Export Plug-In . SVG Version: 6.00 Build 0)  -->
<!DOCTYPE svg PUBLIC "-//W3C//DTD SVG 1.1//EN" "http://www.w3.org/Graphics/SVG/1.1/DTD/svg11.dtd">
<svg version="1.1" id="&#x56FE;&#x5C42;_1" xmlns="http://www.w3.org/2000/svg" xmlns:xlink="http://www.w3.org/1999/xlink" x="0px"
	 y="0px" width="220px" height="110px" viewBox="0 0 220 110" style="enable-background:new 0 0 220 110;" xml:space="preserve">
<g>
	<path style="fill:#0000FF;" d="M75.848,28.618l9.5-1.2c1.465-0.2,3.065-0.3,4.8-0.3c1.732,0,3.433,0.534,5.1,1.6
		c1.666,1.067,2.5,1.967,2.5,2.7c0,1.067-1.334,1.6-4,1.6c-0.867,0-1.834-0.065-2.899-0.2c-3.135-0.333-8.801-0.5-17-0.5
		c-3.335,6.734-5.9,10.1-7.7,10.1c-0.4,0-0.601-0.2-0.601-0.6c0-0.4,0.383-1.266,1.15-2.6c0.766-1.333,1.75-3.6,2.95-6.8
		c-4.935,0.134-10.2,0.6-15.8,1.4c0.133,1.268,0.2,2.367,0.2,3.3c0,2.734-0.734,4.1-2.2,4.1c-0.534,0-0.935-0.45-1.2-1.35
		c-0.267-0.9-0.534-2.716-0.8-5.45c-5.2,0.667-8.6,1.185-10.2,1.55c-1.6,0.367-3.167,0.55-4.7,0.55c-1.535,0-2.95-0.433-4.25-1.3
		c-1.3-0.866-1.95-1.516-1.95-1.95c0-0.433,1.25-0.65,3.75-0.65s8.15-0.5,16.95-1.5c-0.334-2.4-0.734-4.15-1.2-5.25
		c-0.467-1.1-1.3-2.283-2.5-3.55c-0.534-0.6-0.8-1.183-0.8-1.75c0-0.565,0.533-0.85,1.6-0.85c1.065,0,2.615,0.45,4.65,1.35
		c2.033,0.9,2.933,2.185,2.7,3.85c-0.234,1.667-0.317,3.634-0.25,5.9c5.933-0.533,11.633-1.1,17.1-1.7
		c1.133-3.466,1.7-5.916,1.7-7.35c0-1.433-0.135-2.466-0.4-3.1c-0.267-0.633-0.399-1.116-0.399-1.45c0-0.866,0.45-1.3,1.35-1.3
		c0.9,0,2.383,0.45,4.45,1.35c2.065,0.9,3.1,1.634,3.1,2.2c0,0.567-0.267,1.284-0.8,2.15L75.848,28.618z"/>
	<path style="fill:#FF0000;" d="M43.548,50.418l-0.5,11.5c-0.067,3.668-0.334,5.918-0.8,6.75c-0.467,0.834-0.967,1.25-1.5,1.25
		c-0.534,0-1.05-0.55-1.55-1.65c-0.5-1.1-0.75-2.149-0.75-3.149s0.116-2.149,0.35-3.45c0.232-1.3,0.35-2.916,0.35-4.85
		c0-3.133-0.284-5.533-0.85-7.2c-0.567-1.666-0.85-2.766-0.85-3.3c0-0.533,0.315-0.8,0.95-0.8c0.633,0,1.65,0.484,3.05,1.45
		C42.848,47.935,43.548,49.085,43.548,50.418z"/>
	<path style="fill:#FF0000;" d="M57.248,45.818c0,0.467-0.134,1.25-0.4,2.35c-0.267,1.1-0.467,4.817-0.6,11.15
		c-0.134,6.334-0.4,10.117-0.8,11.35c-0.4,1.234-0.917,1.85-1.55,1.85c-0.634,0-1.267-0.633-1.9-1.899
		c-0.634-1.266-0.95-2.383-0.95-3.351c0-0.965,0.183-2.365,0.55-4.199c0.366-1.833,0.55-4.115,0.55-6.85c0-5.066-0.4-8.733-1.2-11
		c-0.334-0.933-0.5-1.65-0.5-2.15s0.315-0.75,0.95-0.75c0.633,0,1.766,0.268,3.4,0.8C56.431,43.652,57.248,44.552,57.248,45.818z"/>
	<path style="fill:#0000FF;" d="M73.748,51.418c1.333,0,3.733-0.465,7.2-1.4c3.466-0.933,5.933-1.4,7.4-1.4
		c1.465,0,2.699,0.234,3.699,0.7c1,0.467,1.5,0.967,1.5,1.5c0,0.535-0.35,0.967-1.05,1.3c-0.7,0.334-3.185,0.767-7.45,1.3
		c-4.267,0.535-7.199,0.8-8.8,0.8c-1.6,0-2.935-0.166-4-0.5c-2.534,3.6-4.967,6.549-7.3,8.85c-2.334,2.3-3.9,3.449-4.7,3.449
		c-0.267,0-0.4-0.182-0.4-0.549c0-0.366,0.266-0.883,0.8-1.551c7.133-9,10.701-16.266,10.701-21.8c0-1.533,0.399-2.3,1.199-2.3
		c0.801,0,2.083,0.435,3.851,1.3c1.766,0.867,2.649,1.667,2.649,2.4c0,0.467-0.35,1.15-1.05,2.05
		C77.297,46.468,75.88,48.418,73.748,51.418z"/>
	<path style="fill:#0000FF;" d="M83.148,91.118c3.2-0.2,5.732-0.399,7.6-0.601c1.866-0.199,3.466-0.299,4.8-0.299
		c3.133,0,5.616,0.564,7.45,1.699c1.833,1.133,2.75,2.166,2.75,3.1c0,1.201-1.435,1.801-4.3,1.801c-1,0-2.167-0.067-3.5-0.2
		c-7.8-1-15.234-1.5-22.3-1.5c-9.2,0-18.15,0.433-26.85,1.3c-8.7,0.865-14.484,1.666-17.35,2.4c-2.867,0.732-4.95,1.1-6.25,1.1
		c-1.3,0-2.685-0.5-4.15-1.5c-1.467-1-2.2-1.784-2.2-2.35c0-0.567,1.233-0.867,3.7-0.9c2.465-0.034,8.6-0.417,18.4-1.15
		c-1.267-7.932-2.767-13.232-4.5-15.899c-0.6-1-0.9-1.766-0.9-2.3c0-0.533,0.333-0.801,1-0.801c0.666,0,1.666,0.234,3,0.701
		c6.732-0.533,14.315-1.266,22.75-2.201c8.433-0.932,13.4-1.516,14.9-1.75c1.5-0.232,2.516-0.35,3.05-0.35c2,0,4.216,0.7,6.65,2.1
		c2.433,1.4,3.649,2.635,3.649,3.701c0,0.6-0.434,1.299-1.3,2.1C87.581,80.853,85.547,84.785,83.148,91.118z M53.748,93.219
		c-0.534-2.668-0.9-8.066-1.1-16.201c-3.267,0.4-6.834,0.701-10.7,0.9c1.266,4.268,2.1,9.567,2.5,15.9L53.748,93.219z
		 M65.148,75.818l-11.3,1.1c2.2,3.4,3.3,6.2,3.3,8.4c0,2.199-0.434,4.8-1.3,7.8l8.5-0.601c1.065-5.665,1.6-9.564,1.6-11.699
		C65.948,78.686,65.68,77.018,65.148,75.818z M78.248,91.518c1.866-6.665,2.8-11.232,2.8-13.699c0-1.934-1.3-2.9-3.899-2.9
		c-0.734,0-3.835,0.234-9.3,0.7c2.6,1.267,3.899,2.468,3.899,3.601c0,0.399-0.134,0.834-0.399,1.299
		c-0.468,0.936-1.801,4.867-4,11.801C72.414,91.984,76.047,91.719,78.248,91.518z"/>
	<path style="fill:#0000FF;" d="M74.348,58.418c1.133,0,3.199,0.668,6.199,2c3,1.334,4.5,3.018,4.5,5.051s-0.617,3.049-1.85,3.049
		c-1.234,0-3.167-1.399-5.8-4.199c-2.635-2.801-3.95-4.482-3.95-5.051C73.448,58.703,73.748,58.418,74.348,58.418z"/>
	<path style="fill:#FF0000;" d="M141.549,52.218c0.199,0.134,0.299,0.367,0.299,0.7c0,0.667-1.018,3.2-3.049,7.6
		c-2.035,4.4-4.086,9.15-6.15,14.25c-2.068,5.101-3.285,8.4-3.65,9.9c-0.367,1.5-1.018,2.25-1.949,2.25
		c-0.936,0-2.135-1.4-3.602-4.199c-1.467-2.801-2.199-4.866-2.199-6.201c0-1,0.582-1.6,1.75-1.799
		c1.166-0.201,2.715-1.451,4.65-3.75c1.932-2.301,5.533-7.416,10.799-15.351C139.98,53.218,141.014,52.085,141.549,52.218z"/>
	<path style="fill:#FF0000;" d="M126.947,33.518c1.533,0,3.516,0.317,5.951,0.95c2.432,0.634,4.4,1.684,5.9,3.15
		c1.5,1.467,2.25,3,2.25,4.6c0,0.934-0.268,1.667-0.801,2.2c-0.535,0.535-1.367,0.8-2.5,0.8c-1.135,0-2.316-0.533-3.551-1.6
		c-1.234-1.066-2.967-2.733-5.199-5c-2.234-2.266-3.35-3.683-3.35-4.25C125.648,33.802,126.08,33.518,126.947,33.518z"/>
	<path style="fill:#0000FF;" d="M171.148,45.418c6.865-1.2,11.15-2.033,12.85-2.5c1.699-0.465,3.699-0.7,6-0.7s4.15,0.467,5.551,1.4
		c1.398,0.934,2.1,1.75,2.1,2.45c0,0.7-0.367,1.217-1.1,1.55c-0.734,0.334-1.836,0.484-3.301,0.45c-1.467-0.033-2.635-0.05-3.5-0.05
		c-5.867,0-11.699,0.3-17.5,0.9s-12.566,1.834-20.301,3.7c-1.467,0.4-2.684,0.6-3.648,0.6c-0.969,0-2.051-0.4-3.25-1.2
		c-1.201-0.8-1.801-1.45-1.801-1.95s0.9-0.815,2.699-0.95c3.266-0.266,10-1.2,20.201-2.8l0.4-8.9c-1.801,0.267-3.586,0.4-5.352,0.4
		s-3.467-0.25-5.1-0.75c-1.635-0.5-2.449-1.033-2.449-1.6c0-0.566,0.965-0.983,2.9-1.25c1.932-0.266,5.365-1,10.299-2.2
		c0.133-4.065,0.051-7.233-0.25-9.5c-0.299-2.266-1.049-4.133-2.25-5.6c-0.6-0.733-0.9-1.433-0.9-2.1c0-0.666,0.533-1,1.602-1
		c1.064,0,2.965,0.6,5.699,1.8c2.732,1.2,4.1,2.5,4.1,3.9c0,0.467-0.135,1-0.4,1.6c-1,1.867-1.734,5.034-2.199,9.5
		c3.199-0.933,5.715-1.4,7.551-1.4c1.832,0,3.148,0.234,3.949,0.7c0.801,0.467,1.199,1.017,1.199,1.65
		c0,0.635-0.516,1.217-1.549,1.75c-1.035,0.535-4.918,1.6-11.65,3.2L171.148,45.418z"/>
	<path style="fill:#0000FF;" d="M175.648,85.418c4.533,2.867,8.9,4.982,13.1,6.35c4.199,1.366,9.9,2.75,17.1,4.15
		c2.133,0.4,3.201,0.966,3.201,1.7c0,0.333-0.318,0.583-0.951,0.75c-0.635,0.165-3.199,0.5-7.699,1s-7.785,0.75-9.85,0.75
		c-2.068,0-3.801-0.185-5.201-0.55c-1.4-0.367-2.9-1.418-4.5-3.15c-1.6-1.734-4.199-4.3-7.799-7.699
		c-3.4,3.732-7.219,6.415-11.451,8.049c-4.234,1.633-7.75,2.451-10.549,2.451c-0.936,0-1.4-0.186-1.4-0.551
		c0-0.367,0.666-0.85,2-1.449c8.666-3.668,14.633-7.601,17.9-11.801c-3.867-3.6-6.635-6.133-8.301-7.6
		c-4.934,6.199-9.734,10.768-14.4,13.699c-4.666,2.934-7.934,4.4-9.799,4.4c-0.535,0-0.801-0.184-0.801-0.55
		c0-0.367,0.465-0.884,1.4-1.55c6.732-4.535,12.6-9.883,17.6-16.051c5-6.165,7.5-11.016,7.5-14.549c0-1.733,0.316-2.601,0.949-2.601
		s1.717,0.468,3.25,1.399c1.533,0.936,2.301,1.801,2.301,2.601c0,0.399-0.467,1.435-1.4,3.101c1.666,0,4.033-0.701,7.1-2.101
		c0.602-0.266,1.234-0.399,1.9-0.399s1.9,0.434,3.701,1.299c1.799,0.867,2.699,1.65,2.699,2.351s-0.301,1.351-0.9,1.95
		c-0.734,0.867-1.566,2.967-2.5,6.3C178.914,79.985,177.514,82.752,175.648,85.418z M163.947,55.918c0,0.268-0.266,0.7-0.799,1.301
		l-3.301,3.5c-1.6,1.734-3.467,3.5-5.6,5.299c-2.135,1.801-4.035,3.201-5.699,4.201c-1.668,1-2.719,1.5-3.15,1.5
		c-0.436,0-0.65-0.184-0.65-0.551c0-0.365,0.266-0.815,0.801-1.35c4.732-4.732,7.898-8.216,9.5-10.45c1.6-2.233,2.398-3.9,2.398-5
		s0.383-1.65,1.15-1.65c0.766,0,1.85,0.367,3.25,1.1C163.248,54.552,163.947,55.252,163.947,55.918z M171.447,82.518
		c1.066-2,1.916-4.082,2.551-6.25c0.633-2.165,0.949-3.6,0.949-4.299c0-0.701-0.217-1.266-0.648-1.701
		c-0.436-0.432-1.086-0.549-1.951-0.35c-0.867,0.2-1.834,0.301-2.9,0.301s-2.033-0.133-2.898-0.4c-1.4,2.4-2.701,4.434-3.9,6.1
		C166.182,78.652,169.113,80.853,171.447,82.518z M175.549,52.218c1.133,0,3.064,0.534,5.799,1.6c2.732,1.067,4.75,2.385,6.051,3.95
		c1.299,1.568,1.949,2.885,1.949,3.951s-0.234,1.85-0.699,2.35c-0.467,0.5-1.068,0.75-1.801,0.75c-0.734,0-1.533-0.333-2.4-1
		c-0.867-0.666-2.084-1.801-3.648-3.4c-1.568-1.6-3.018-3.166-4.352-4.7c-1.334-1.533-2-2.5-2-2.9
		C174.447,52.418,174.814,52.218,175.549,52.218z"/>
</g>
</svg>
