<?xml version="1.0" encoding="iso-8859-1"?>
<!-- Generator: Adobe Illustrator 16.0.0, SVG Export Plug-In . SVG Version: 6.00 Build 0)  -->
<!DOCTYPE svg PUBLIC "-//W3C//DTD SVG 1.1//EN" "http://www.w3.org/Graphics/SVG/1.1/DTD/svg11.dtd">
<svg version="1.1" id="&#x56FE;&#x5C42;_1" xmlns="http://www.w3.org/2000/svg" xmlns:xlink="http://www.w3.org/1999/xlink" x="0px"
	 y="0px" width="330px" height="110px" viewBox="0 0 330 110" style="enable-background:new 0 0 330 110;" xml:space="preserve">
<g>
	<path style="fill:#0000FF;" d="M81.749,25.386l9.5-1.2c1.466-0.2,3.066-0.3,4.801-0.3c1.732,0,3.433,0.534,5.1,1.6
		c1.666,1.067,2.5,1.967,2.5,2.7c0,1.067-1.334,1.6-4,1.6c-0.867,0-1.834-0.065-2.9-0.2c-3.134-0.333-8.8-0.5-17-0.5
		c-3.334,6.734-5.899,10.1-7.7,10.1c-0.4,0-0.6-0.2-0.6-0.6c0-0.4,0.383-1.266,1.15-2.6c0.766-1.333,1.75-3.6,2.95-6.8
		c-4.934,0.134-10.2,0.6-15.8,1.4c0.133,1.268,0.2,2.367,0.2,3.3c0,2.734-0.734,4.1-2.2,4.1c-0.534,0-0.935-0.45-1.2-1.35
		c-0.267-0.9-0.534-2.716-0.8-5.45c-5.2,0.667-8.6,1.185-10.2,1.55c-1.6,0.367-3.167,0.55-4.7,0.55c-1.535,0-2.95-0.433-4.25-1.3
		c-1.3-0.866-1.95-1.516-1.95-1.95c0-0.433,1.25-0.65,3.75-0.65s8.15-0.5,16.95-1.5c-0.334-2.4-0.734-4.15-1.2-5.25
		c-0.467-1.1-1.3-2.283-2.5-3.55c-0.534-0.6-0.8-1.183-0.8-1.75c0-0.565,0.533-0.85,1.6-0.85c1.065,0,2.615,0.45,4.65,1.35
		c2.033,0.9,2.933,2.185,2.7,3.85c-0.234,1.667-0.317,3.634-0.25,5.9c5.933-0.533,11.633-1.1,17.1-1.7
		c1.133-3.466,1.7-5.916,1.7-7.35c0-1.433-0.134-2.466-0.4-3.1c-0.268-0.633-0.4-1.116-0.4-1.45c0-0.866,0.45-1.3,1.35-1.3
		c0.9,0,2.383,0.45,4.45,1.35c2.065,0.9,3.1,1.634,3.1,2.2c0,0.567-0.267,1.284-0.8,2.15L81.749,25.386z"/>
	<path style="fill:#FF0000;" d="M49.449,47.186l-0.5,11.5c-0.067,3.668-0.334,5.918-0.8,6.75c-0.467,0.835-0.967,1.25-1.5,1.25
		c-0.534,0-1.05-0.549-1.55-1.649s-0.75-2.149-0.75-3.149s0.116-2.15,0.35-3.451c0.232-1.299,0.35-2.915,0.35-4.85
		c0-3.133-0.284-5.533-0.85-7.2c-0.567-1.666-0.85-2.766-0.85-3.3c0-0.533,0.315-0.8,0.95-0.8c0.633,0,1.65,0.484,3.05,1.45
		C48.749,44.703,49.449,45.854,49.449,47.186z"/>
	<path style="fill:#FF0000;" d="M63.149,42.586c0,0.467-0.134,1.25-0.4,2.35c-0.267,1.1-0.467,4.817-0.6,11.15
		c-0.134,6.334-0.4,10.117-0.8,11.35c-0.4,1.234-0.917,1.851-1.55,1.851c-0.634,0-1.267-0.633-1.9-1.899
		c-0.634-1.266-0.95-2.383-0.95-3.351c0-0.966,0.183-2.366,0.55-4.2c0.366-1.832,0.55-4.115,0.55-6.85c0-5.066-0.4-8.733-1.2-11
		c-0.334-0.933-0.5-1.65-0.5-2.15s0.315-0.75,0.95-0.75c0.633,0,1.766,0.268,3.4,0.8C62.332,40.42,63.149,41.32,63.149,42.586z"/>
	<path style="fill:#0000FF;" d="M79.649,48.186c1.333,0,3.732-0.465,7.2-1.4c3.466-0.933,5.933-1.4,7.399-1.4
		c1.466,0,2.7,0.234,3.7,0.7c1,0.467,1.5,0.967,1.5,1.5c0,0.535-0.35,0.967-1.05,1.3c-0.7,0.334-3.185,0.767-7.45,1.3
		c-4.267,0.535-7.2,0.8-8.8,0.8s-2.935-0.166-4-0.5c-2.534,3.6-4.967,6.55-7.3,8.85c-2.334,2.301-3.9,3.45-4.7,3.45
		c-0.267,0-0.4-0.183-0.4-0.55c0-0.365,0.266-0.883,0.8-1.551c7.133-9,10.7-16.265,10.7-21.799c0-1.533,0.4-2.3,1.2-2.3
		c0.799,0,2.083,0.435,3.85,1.3c1.766,0.867,2.649,1.667,2.649,2.4c0,0.467-0.35,1.15-1.05,2.05
		C83.199,43.236,81.782,45.186,79.649,48.186z"/>
	<path style="fill:#0000FF;" d="M89.049,87.886c3.199-0.199,5.732-0.399,7.6-0.6c1.865-0.2,3.466-0.3,4.8-0.3
		c3.133,0,5.616,0.565,7.45,1.7c1.833,1.133,2.75,2.165,2.75,3.1c0,1.2-1.435,1.8-4.3,1.8c-1,0-2.167-0.067-3.5-0.2
		c-7.8-1-15.234-1.5-22.3-1.5c-9.2,0-18.15,0.434-26.85,1.301c-8.7,0.865-14.484,1.665-17.35,2.399
		c-2.867,0.733-4.95,1.101-6.25,1.101c-1.3,0-2.685-0.5-4.15-1.5c-1.467-1-2.2-1.785-2.2-2.351c0-0.567,1.233-0.867,3.7-0.899
		c2.465-0.035,8.6-0.418,18.4-1.15c-1.267-7.933-2.767-13.232-4.5-15.899c-0.6-1-0.9-1.766-0.9-2.301c0-0.533,0.333-0.8,1-0.8
		c0.666,0,1.666,0.234,3,0.7c6.732-0.533,14.315-1.266,22.75-2.2c8.433-0.933,13.4-1.516,14.9-1.75
		c1.5-0.233,2.516-0.351,3.05-0.351c2,0,4.216,0.701,6.65,2.101c2.433,1.399,3.649,2.634,3.649,3.7c0,0.6-0.435,1.3-1.3,2.1
		C93.482,77.62,91.449,81.554,89.049,87.886z M59.649,89.986c-0.534-2.667-0.9-8.065-1.1-16.2c-3.267,0.399-6.834,0.7-10.7,0.899
		c1.266,4.268,2.1,9.567,2.5,15.9L59.649,89.986z M71.049,72.586l-11.3,1.1c2.2,3.4,3.3,6.2,3.3,8.4s-0.434,4.8-1.3,7.8l8.5-0.6
		c1.065-5.666,1.6-9.565,1.6-11.7C71.849,75.453,71.582,73.786,71.049,72.586z M84.149,88.286c1.865-6.666,2.8-11.232,2.8-13.7
		c0-1.933-1.3-2.9-3.899-2.9c-0.734,0-3.835,0.234-9.3,0.701c2.6,1.267,3.9,2.467,3.9,3.6c0,0.399-0.134,0.834-0.4,1.3
		c-0.467,0.935-1.8,4.867-4,11.8C78.314,88.752,81.949,88.486,84.149,88.286z"/>
	<path style="fill:#0000FF;" d="M80.249,55.186c1.133,0,3.2,0.667,6.2,2c3,1.335,4.5,3.018,4.5,5.051c0,2.034-0.617,3.05-1.85,3.05
		c-1.234,0-3.167-1.399-5.8-4.2c-2.635-2.8-3.95-4.482-3.95-5.05C79.349,55.471,79.649,55.186,80.249,55.186z"/>
	<path style="fill:#FF0000;" d="M147.449,48.986c0.2,0.134,0.3,0.367,0.3,0.7c0,0.667-1.018,3.2-3.05,7.6
		c-2.034,4.399-4.085,9.149-6.15,14.25c-2.067,5.1-3.284,8.4-3.649,9.9c-0.367,1.5-1.018,2.25-1.95,2.25
		c-0.935,0-2.135-1.4-3.601-4.2c-1.467-2.8-2.199-4.865-2.199-6.2c0-1,0.582-1.601,1.75-1.8c1.165-0.2,2.715-1.45,4.649-3.75
		c1.933-2.301,5.533-7.416,10.8-15.35C145.881,49.986,146.915,48.854,147.449,48.986z"/>
	<path style="fill:#FF0000;" d="M132.848,30.286c1.533,0,3.516,0.317,5.95,0.95c2.433,0.634,4.4,1.684,5.9,3.15
		c1.5,1.467,2.25,3,2.25,4.6c0,0.934-0.268,1.667-0.8,2.2c-0.535,0.535-1.367,0.8-2.5,0.8c-1.135,0-2.317-0.533-3.551-1.6
		c-1.234-1.066-2.967-2.733-5.199-5c-2.234-2.266-3.351-3.683-3.351-4.25C131.548,30.57,131.981,30.286,132.848,30.286z"/>
	<path style="fill:#0000FF;" d="M177.049,42.186c6.865-1.2,11.15-2.033,12.85-2.5c1.699-0.465,3.699-0.7,6-0.7s4.15,0.467,5.551,1.4
		c1.398,0.934,2.1,1.75,2.1,2.45c0,0.7-0.367,1.217-1.1,1.55c-0.734,0.334-1.836,0.484-3.301,0.45c-1.467-0.033-2.635-0.05-3.5-0.05
		c-5.867,0-11.699,0.3-17.5,0.9s-12.567,1.834-20.3,3.7c-1.467,0.4-2.684,0.6-3.649,0.6c-0.968,0-2.05-0.4-3.25-1.2
		s-1.8-1.45-1.8-1.95s0.899-0.815,2.699-0.95c3.266-0.266,10-1.2,20.201-2.8l0.4-8.9c-1.801,0.267-3.586,0.4-5.352,0.4
		c-1.766,0-3.466-0.25-5.099-0.75c-1.635-0.5-2.45-1.033-2.45-1.6c0-0.566,0.966-0.983,2.9-1.25c1.933-0.266,5.366-1,10.299-2.2
		c0.133-4.065,0.051-7.233-0.25-9.5c-0.299-2.266-1.049-4.133-2.25-5.6c-0.6-0.733-0.9-1.433-0.9-2.1c0-0.666,0.533-1,1.602-1
		c1.064,0,2.965,0.6,5.699,1.8c2.732,1.2,4.1,2.5,4.1,3.9c0,0.467-0.135,1-0.4,1.6c-1,1.867-1.734,5.034-2.199,9.5
		c3.199-0.933,5.715-1.4,7.551-1.4c1.832,0,3.148,0.234,3.949,0.7c0.801,0.467,1.199,1.017,1.199,1.65
		c0,0.635-0.516,1.217-1.549,1.75c-1.035,0.535-4.918,1.6-11.65,3.2L177.049,42.186z"/>
	<path style="fill:#0000FF;" d="M169.848,52.686c0,0.267-0.266,0.7-0.799,1.3l-3.3,3.5c-1.6,1.734-3.467,3.5-5.6,5.3
		c-2.135,1.8-4.035,3.2-5.7,4.2c-1.667,1-2.718,1.5-3.15,1.5c-0.435,0-0.649-0.184-0.649-0.551c0-0.365,0.266-0.814,0.8-1.35
		c4.732-4.732,7.899-8.215,9.5-10.449c1.6-2.233,2.399-3.9,2.399-5s0.383-1.65,1.15-1.65c0.766,0,1.849,0.367,3.25,1.1
		C169.148,51.32,169.848,52.021,169.848,52.686z"/>
	<path style="fill:#0000FF;" d="M181.549,82.187c4.533,2.867,8.9,4.982,13.1,6.35c4.199,1.365,9.9,2.75,17.1,4.15
		c2.133,0.399,3.201,0.965,3.201,1.699c0,0.333-0.318,0.583-0.951,0.75c-0.635,0.166-3.199,0.5-7.699,1s-7.785,0.75-9.85,0.75
		c-2.068,0-3.801-0.184-5.201-0.55c-1.4-0.367-2.9-1.417-4.5-3.149c-1.6-1.734-4.199-4.301-7.799-7.7
		c-3.4,3.732-7.219,6.415-11.451,8.05c-4.234,1.633-7.75,2.45-10.549,2.45c-0.935,0-1.4-0.185-1.4-0.55c0-0.367,0.666-0.851,2-1.45
		c8.667-3.667,14.633-7.601,17.901-11.8c-3.867-3.601-6.635-6.134-8.301-7.601c-4.934,6.2-9.734,10.768-14.4,13.7
		c-4.667,2.933-7.935,4.4-9.8,4.4c-0.534,0-0.8-0.185-0.8-0.551c0-0.367,0.465-0.884,1.399-1.55
		c6.733-4.534,12.601-9.883,17.601-16.05c5-6.165,7.5-11.016,7.5-14.55c0-1.732,0.316-2.6,0.949-2.6s1.717,0.467,3.25,1.399
		c1.533,0.935,2.301,1.8,2.301,2.601c0,0.399-0.467,1.434-1.4,3.1c1.666,0,4.033-0.7,7.1-2.1c0.602-0.266,1.234-0.4,1.9-0.4
		s1.9,0.434,3.701,1.3c1.799,0.867,2.699,1.649,2.699,2.351c0,0.699-0.301,1.35-0.9,1.949c-0.734,0.867-1.566,2.967-2.5,6.301
		C184.814,76.753,183.414,79.521,181.549,82.187z M177.348,79.286c1.066-2,1.916-4.083,2.551-6.25
		c0.633-2.165,0.949-3.601,0.949-4.3c0-0.7-0.217-1.266-0.648-1.7c-0.436-0.433-1.086-0.55-1.951-0.351
		c-0.867,0.201-1.834,0.301-2.9,0.301s-2.033-0.133-2.898-0.4c-1.4,2.4-2.701,4.435-3.9,6.1
		C172.082,75.42,175.014,77.62,177.348,79.286z"/>
	<path style="fill:#0000FF;" d="M181.449,48.986c1.133,0,3.064,0.534,5.799,1.6c2.732,1.067,4.75,2.385,6.051,3.95
		c1.299,1.567,1.949,2.884,1.949,3.95s-0.234,1.85-0.699,2.35c-0.467,0.5-1.068,0.75-1.801,0.75c-0.734,0-1.533-0.332-2.4-1
		c-0.867-0.666-2.084-1.8-3.648-3.4c-1.568-1.6-3.018-3.165-4.352-4.699c-1.334-1.533-2-2.5-2-2.9
		C180.348,49.186,180.715,48.986,181.449,48.986z"/>
	<path style="fill:#FFFF00;" d="M267.648,19.486c6.4,6.667,11.715,11.684,15.949,15.05c4.234,3.367,8.334,5.935,12.301,7.7
		c3.965,1.767,9.215,3.517,15.75,5.25c2.6,0.734,3.9,1.4,3.9,2c0,0.267-0.35,0.534-1.051,0.8c-0.699,0.267-2.967,0.6-6.799,1
		c-3.836,0.4-6.734,0.6-8.701,0.6s-3.85-0.533-5.65-1.6c-1.799-1.065-5.199-4.083-10.199-9.05c-5-4.966-10.734-11.183-17.199-18.65
		c-5.469,10-12.367,18.617-20.701,25.85c-8.334,7.234-14.5,10.85-18.5,10.85c-1,0-1.5-0.233-1.5-0.7c0-0.465,0.334-0.9,1-1.3
		c11.201-6.666,19.883-14.95,26.051-24.85c6.166-9.9,9.016-16.05,8.549-18.45c-0.066-0.266-0.1-0.533-0.1-0.8c0-1.333,0.633-2,1.9-2
		c1.266,0,2.85,0.535,4.75,1.6c1.9,1.067,2.85,2.034,2.85,2.9C270.248,16.553,269.381,17.82,267.648,19.486z M241.049,68.887
		c0.732,0,1.35,0.634,1.85,1.899c0.5,1.267,0.75,2.517,0.75,3.75c0,1.234-0.5,3.217-1.5,5.95c-1,2.734-2.117,4.95-3.35,6.649
		c-1.234,1.7-2.25,2.551-3.051,2.551c-0.799,0-1.467-0.768-2-2.301c-0.533-1.534-0.799-2.815-0.799-3.85
		c0-1.033,0.732-2.482,2.199-4.35c1.801-2.533,3.301-5.533,4.5-9.001C239.914,69.32,240.381,68.887,241.049,68.887z M284.549,53.186
		c0,0.8-0.936,1.467-2.801,2c-1.066,0.267-2.65,1.517-4.75,3.75c-2.1,2.234-4.75,4.268-7.949,6.101
		c-3.201,1.835-5.268,2.75-6.201,2.75c-0.467,0-0.699-0.233-0.699-0.7c0-0.465,0.801-1.4,2.4-2.8c6.4-5.8,9.6-9.3,9.6-10.5
		c0-0.333-0.25-0.5-0.75-0.5s-2.066,0.4-4.699,1.2c-2.635,0.8-6.551,2.3-11.75,4.5c-1.469,0.667-2.9,1-4.301,1
		s-2.867-0.482-4.4-1.45c-1.533-0.966-2.299-1.815-2.299-2.55c0-0.733,0.633-1.1,1.898-1.1c3.334,0,7.783-0.683,13.352-2.05
		c5.564-1.365,9.682-2.75,12.35-4.15c1.133-0.666,2.082-1,2.85-1c0.766,0,2.316,0.717,4.65,2.15
		C283.381,51.271,284.549,52.386,284.549,53.186z M283.049,78.187c0.4,0,0.832,0.234,1.299,0.699c2.602,2.535,4.566,4.317,5.9,5.351
		c1.334,1.034,3.434,2.45,6.301,4.25c0.865,0.532,1.299,1.2,1.299,2c0,1.8-2.5,3.315-7.5,4.55c-5,1.232-9.6,1.85-13.799,1.85
		c-6.936,0-12.217-1.3-15.85-3.899c-3.635-2.601-6.5-6.435-8.602-11.5c-2.1-5.065-3.148-8-3.148-8.801
		c0-0.799,0.232-1.199,0.699-1.199c0.465,0,1.25,0.467,2.35,1.4s1.783,1.699,2.051,2.299c1.799,4.935,3.4,8.268,4.799,10.001
		c1.4,1.732,3.301,3.115,5.701,4.149c2.4,1.033,5.133,1.55,8.199,1.55s5.766-0.217,8.1-0.649c2.334-0.435,3.717-0.784,4.15-1.05
		c0.434-0.268,0.65-0.635,0.65-1.101c0-1.667-0.867-4.2-2.6-7.6c-0.4-0.666-0.6-1.216-0.6-1.65
		C282.449,78.403,282.648,78.187,283.049,78.187z M260.748,37.386c6.334,0,9.5,2.1,9.5,6.3c0,0.8-0.234,1.435-0.699,1.9
		c-0.467,0.467-1.068,0.7-1.801,0.7c-1.467,0-3.367-1.116-5.699-3.35c-2.334-2.233-3.5-3.715-3.5-4.45
		C258.549,37.753,259.281,37.386,260.748,37.386z M264.049,69.786c3.133,0,5.766,0.75,7.9,2.25c2.133,1.5,3.199,3.317,3.199,5.45
		c0,0.734-0.25,1.334-0.75,1.8c-0.5,0.467-1.084,0.7-1.75,0.7c-1.467,0-3.484-1.483-6.051-4.45c-2.566-2.966-3.85-4.665-3.85-5.101
		C262.748,70.004,263.182,69.786,264.049,69.786z M285.449,64.686c1.664,0,4.314,0.451,7.949,1.351
		c3.633,0.899,6.082,2.267,7.35,4.101c1.266,1.834,1.9,3.533,1.9,5.1c0,1.567-0.734,2.35-2.199,2.35c-1.469,0-4.551-1.832-9.25-5.5
		c-4.701-3.666-7.051-5.933-7.051-6.8C284.148,64.887,284.582,64.686,285.449,64.686z"/>
</g>
</svg>
